<?xml version="1.0" encoding="utf-8"?>
<!-- Generator: Adobe Illustrator 16.0.0, SVG Export Plug-In . SVG Version: 6.00 Build 0)  -->
<!DOCTYPE svg PUBLIC "-//W3C//DTD SVG 1.1//EN" "http://www.w3.org/Graphics/SVG/1.1/DTD/svg11.dtd">
<svg version="1.1" id="Capa_1" xmlns="http://www.w3.org/2000/svg" xmlns:xlink="http://www.w3.org/1999/xlink" x="0px" y="0px"
	 width="40px" height="40px" viewBox="380 380 40 40" enable-background="new 380 380 40 40" xml:space="preserve">
<g>
	<g>
		<path fill="#7B2481" d="M391.647,388.212c0,1.803-1.331,3.264-3.521,3.264c-2.061,0-3.392-1.46-3.392-3.264
			c0-1.847,1.375-3.264,3.478-3.264C390.316,384.948,391.605,386.365,391.647,388.212z M384.905,415.053v-21h6.528v21H384.905
			L384.905,415.053z"/>
		<path fill="#7B2481" d="M395.339,400.752c0-2.62-0.085-4.81-0.171-6.7h5.669l0.301,2.92h0.129
			c0.858-1.375,2.963-3.394,6.485-3.394c4.293,0,7.515,2.878,7.515,9.062v12.412h-6.528v-11.639c0-2.706-0.944-4.552-3.307-4.552
			c-1.804,0-2.877,1.246-3.349,2.448c-0.173,0.429-0.216,1.03-0.216,1.632v12.11h-6.528V400.752z"/>
	</g>
</g>
</svg>
