<?xml version="1.0" encoding="utf-8"?>
<!-- Generator: Adobe Illustrator 16.0.0, SVG Export Plug-In . SVG Version: 6.00 Build 0)  -->
<!DOCTYPE svg PUBLIC "-//W3C//DTD SVG 1.1//EN" "http://www.w3.org/Graphics/SVG/1.1/DTD/svg11.dtd">
<svg version="1.1" id="Capa_1" xmlns="http://www.w3.org/2000/svg" xmlns:xlink="http://www.w3.org/1999/xlink" x="0px" y="0px"
	 width="40px" height="40px" viewBox="740.333 380 40 40" enable-background="new 740.333 380 40 40" xml:space="preserve">
<path id="XMLID_12_" fill="#B07CB3" d="M765.977,389.93c-0.442-0.221-0.804,0.003-0.804,0.497v19.669l8.07,4.035
	c0.888,0.444,1.608,0.133,1.608-0.694v-18.939c0-0.08-0.045-0.152-0.116-0.188L765.977,389.93z"/>
<path id="XMLID_11_" fill="#95509A" d="M755.493,405.256l9.208-14.962c0.26-0.421,0.833-0.584,1.275-0.364l8.77,4.385
	c0.057,0.028,0.076,0.1,0.043,0.153l-9.616,15.628L755.493,405.256z"/>
<path id="XMLID_10_" fill="#7B2481" d="M747.154,390.198c-0.736-0.368-0.986-0.096-0.555,0.606l8.894,14.452l9.68,4.84
	l-9.658-15.694c-0.014-0.022-0.033-0.04-0.057-0.052L747.154,390.198z"/>
<path id="XMLID_9_" fill="#5C1B61" d="M755.493,413.437c0,0.824-0.603,1.197-1.34,0.828l-7.535-3.768
	c-0.441-0.221-0.804-0.806-0.804-1.301v-18.47c0-0.659,0.482-0.958,1.072-0.663l8.555,4.277c0.032,0.017,0.052,0.049,0.052,0.085
	V413.437z"/>
</svg>
